<svg width="85" height="15" viewBox="0 0 85 15" fill="none" xmlns="http://www.w3.org/2000/svg">
<path fill-rule="evenodd" clip-rule="evenodd" d="M50.7254 1.2545L49.4931 1.77894V2.96199V4.14504H48.5493H47.6055L47.6306 5.27281L47.6557 6.40058L48.5744 6.42579L49.4931 6.451L49.4938 8.85824C49.4945 11.5981 49.5599 12.1657 49.9753 13.0366C50.2692 13.6529 51.1941 14.7593 51.4152 14.7593C51.4758 14.7593 51.8042 14.4138 52.145 13.9915C53.1164 12.7871 53.0644 12.9408 52.6449 12.518C52.016 11.8839 52.0026 11.8096 52.0026 8.96854V6.44481H52.8988H53.7951V5.29493V4.14504L52.9007 4.14504H52.0063L51.982 2.43756L51.9578 0.72998L50.7254 1.2545ZM5.48696 2.19564C3.10033 2.52689 1.11279 4.25764 0.49859 6.53963C0.311004 7.23655 0.289315 8.68513 0.456197 9.36374C0.522072 9.63131 0.738697 10.1878 0.937755 10.6002C1.23818 11.223 1.43813 11.4862 2.11615 12.1516C3.37682 13.3889 4.54446 13.8708 6.28786 13.8735C7.62103 13.8756 8.74341 13.5193 9.80099 12.7584C10.0295 12.594 10.241 12.4596 10.2711 12.4596C10.3013 12.4596 10.7395 12.7595 11.245 13.1262L12.1641 13.7927L12.1877 10.8642C12.2007 9.25353 12.2007 6.64772 12.1877 5.07362L12.1641 2.21156L11.2044 2.91989L10.2447 3.62821L9.82206 3.30961C8.6641 2.43702 6.93979 1.99397 5.48696 2.19564ZM13.5533 8.03129V13.8748H14.7184H15.8835V10.2364C15.8835 7.70358 15.9155 6.49248 15.9889 6.25083C16.1268 5.79663 16.7237 5.13483 17.1796 4.93033C18.0163 4.55529 19.3005 4.81861 19.8666 5.48129C20.3675 6.06747 20.3648 6.04253 20.3648 10.1128V13.8748H21.5747L22.7847 13.8748L22.7829 10.3588C22.7819 8.42499 22.7408 6.56422 22.6915 6.22368C22.4869 4.81136 21.4869 3.47847 20.1705 2.8631C18.6812 2.16689 16.8654 2.2924 15.5552 3.18197C15.294 3.35941 15.1208 3.42451 15.0501 3.37188C14.9908 3.32792 14.6298 3.04346 14.2479 2.7398L13.5533 2.18777L13.5533 8.03129ZM28.477 2.4303C27.465 2.67178 26.6691 3.13739 25.7774 4.0098C25.1374 4.63595 24.8908 4.95173 24.6356 5.47183C24.1878 6.38475 24.0148 7.12395 24.0148 8.12541C24.0148 9.72684 24.5109 10.9439 25.6458 12.1263C26.4463 12.9603 27.1778 13.4281 28.1622 13.7353C30.3207 14.4091 32.6008 13.8424 34.2051 12.2337C34.6393 11.7982 35.2981 10.8559 35.3583 10.5842C35.3686 10.5379 35.0947 10.3409 34.7497 10.1465C34.4046 9.95222 33.9545 9.69703 33.7495 9.57939L33.3765 9.3656L33.0961 9.85598C32.7352 10.4869 32.1465 11.0403 31.499 11.357C30.8352 11.6816 29.6333 11.7638 28.8473 11.5383C28.5691 11.4586 28.3415 11.3614 28.3415 11.3224C28.3415 11.2649 34.1554 6.15247 34.9502 5.5111C35.174 5.3304 35.1745 5.32721 35.018 5.02461C34.7446 4.49593 33.4695 3.33526 32.76 2.96924C31.5096 2.32416 29.8153 2.11099 28.477 2.4303ZM78.2628 8.16963V14.0517H79.5176H80.7723V10.3098V6.56802L81.0085 6.10029C81.4512 5.22337 82.447 4.79004 83.3914 5.06318C83.648 5.13748 83.8649 5.19011 83.8733 5.1802C83.9462 5.09538 84.8951 3.15553 84.8951 3.09149C84.8951 3.04549 84.6632 2.91768 84.3798 2.80755C83.9591 2.644 83.6833 2.60624 82.8785 2.60217C81.767 2.59651 81.313 2.71238 80.4598 3.2193L79.945 3.52526L79.1587 2.90644C78.7262 2.56599 78.3477 2.28754 78.3176 2.28754C78.2875 2.28754 78.2628 4.93448 78.2628 8.16963ZM35.87 2.42305C35.87 2.44897 36.5153 3.58089 37.304 4.93837C38.0927 6.29594 38.738 7.4246 38.738 7.44653C38.738 7.48501 35.4075 13.2635 35.0444 13.855L34.8666 14.1448L36.2807 14.1204L37.6947 14.096L38.8467 12.1058C39.4804 11.0112 40.0324 10.0603 40.0735 9.99273C40.1258 9.90684 40.5188 10.5128 41.3785 12.005L42.6088 14.1402H43.9949C44.7572 14.1402 45.3644 14.1104 45.3441 14.0738C45.324 14.0373 44.4645 12.5374 43.4343 10.7406C42.4041 8.94386 41.5686 7.44901 41.5778 7.41876C41.5869 7.38851 42.2018 6.30488 42.9443 5.01055C43.6868 3.71631 44.3192 2.59297 44.3498 2.51433C44.3998 2.38572 44.266 2.37378 43.0281 2.39572L41.6508 2.42022L40.9256 3.68137C40.5267 4.37502 40.1833 4.95951 40.1623 4.98021C40.1414 5.00082 39.782 4.42367 39.3639 3.69756L38.6036 2.37732L37.2368 2.37661C36.4851 2.37626 35.87 2.39713 35.87 2.42305ZM59.5266 2.59297C58.4141 2.69566 58.3936 2.70159 57.6575 3.13341C56.2087 3.98335 55.2291 4.95987 55.2291 5.55409C55.2291 5.70349 55.1961 5.82564 55.1559 5.82564C55.0364 5.82564 54.781 6.73812 54.781 7.16463C54.781 7.3817 54.7372 7.60247 54.6838 7.65519C54.5274 7.80954 54.4805 8.75846 54.5967 9.41796C54.876 11.004 55.6849 12.2119 57.1043 13.1628C57.5521 13.4627 57.7807 13.5562 58.1333 13.5836C58.3826 13.6031 58.6554 13.6804 58.7395 13.7556C58.8236 13.8307 58.9303 13.8691 58.9764 13.8409C59.0227 13.8127 59.1724 13.8922 59.3094 14.0174L59.5584 14.2452L61.1 14.2016C61.9479 14.1776 62.7181 14.1189 62.8117 14.0714C62.9051 14.0237 63.2367 13.8717 63.5483 13.7336C63.8599 13.5954 64.2899 13.3219 64.504 13.1258C64.7179 12.9296 65.0376 12.658 65.2145 12.5221C65.3914 12.3863 65.536 12.2233 65.536 12.1599C65.536 12.0966 65.6198 11.9699 65.7222 11.8784C65.9495 11.6754 66.3743 10.8127 66.303 10.6988C66.2746 10.6535 66.3132 10.5553 66.3889 10.4806C66.5879 10.2843 66.743 9.38745 66.6062 9.22478C66.509 9.10917 66.5503 9.06088 66.7235 9.08794C66.9283 9.11979 66.7026 7.2116 66.4423 6.71017C66.3539 6.53989 66.255 6.29373 66.2224 6.16326C66.1897 6.03271 66.0824 5.90065 65.984 5.86978C65.8622 5.83165 65.8049 5.73595 65.8049 5.57099C65.8049 5.43751 65.7248 5.25114 65.6267 5.15685C65.1534 4.70123 65.0944 4.66134 64.9892 4.72547C64.9123 4.77235 64.8953 4.74926 64.9338 4.6502C64.9703 4.55626 64.8963 4.42986 64.7181 4.28188C64.5689 4.15796 64.4168 4.05659 64.3801 4.05659C64.3435 4.05659 64.178 3.93718 64.0124 3.79123C63.8468 3.64529 63.6678 3.52588 63.6146 3.52588C63.5615 3.52588 63.3249 3.42442 63.0888 3.30032C62.69 3.09078 62.6408 3.08406 62.3957 3.2047C62.2458 3.27856 62.1099 3.29953 62.081 3.25335C62.053 3.20869 62.0728 3.17207 62.125 3.17207C62.1771 3.17207 62.2198 3.14217 62.2197 3.10573C62.2194 3.01135 61.6691 2.98508 61.554 3.07388C61.5013 3.11466 61.0951 3.17109 60.6514 3.19931C59.9251 3.24548 59.8726 3.23885 60.1237 3.13226C60.5057 2.97022 61.0006 2.425 60.7186 2.47683C60.6816 2.48364 60.1452 2.53592 59.5266 2.59297ZM67.7784 6.33424C67.7794 8.26808 67.8206 10.1289 67.8699 10.4694C68.3233 13.5991 72.0297 15.3036 74.8007 13.6568C75.0901 13.4848 75.3668 13.3441 75.4154 13.3441C75.4641 13.3441 75.8121 13.595 76.1887 13.9015C76.5654 14.2082 76.9241 14.4891 76.9857 14.5259C77.0748 14.5793 77.0977 13.3921 77.0977 8.70556V2.81826H75.8429L74.5882 2.81826L74.5873 6.51115C74.5864 10.1997 74.5862 10.2046 74.376 10.6499C74.0113 11.423 73.3471 11.8404 72.482 11.8404C71.8642 11.8404 71.4198 11.6637 70.9701 11.239C70.2793 10.5869 70.2904 10.6634 70.2881 6.51115L70.2862 2.81826H69.0314L67.7766 2.81826L67.7784 6.33424ZM59.7104 3.29439C59.7104 3.31306 59.6108 3.34711 59.489 3.37011C59.3673 3.39311 59.2889 3.37781 59.315 3.33623C59.3609 3.26291 59.7104 3.22602 59.7104 3.29439ZM59.083 3.43742C59.083 3.48607 59.0426 3.52588 58.9934 3.52588C58.9441 3.52588 58.9037 3.48607 58.9037 3.43742C58.9037 3.38877 58.9441 3.34897 58.9934 3.34897C59.0426 3.34897 59.083 3.38877 59.083 3.43742ZM57.873 4.07472C57.7252 4.17901 57.3723 4.4947 57.0888 4.77633C56.8053 5.05796 56.5735 5.25424 56.5735 5.21249C56.5735 5.17074 56.6736 5.04284 56.796 4.92829C56.9183 4.81374 57.0192 4.67443 57.0201 4.61879C57.0227 4.44534 57.5151 3.9868 57.7442 3.94426C58.1348 3.87181 58.1456 3.88269 57.873 4.07472ZM7.79141 4.79826C8.48189 5.1113 9.25168 5.88119 9.58984 6.59686C9.80198 7.04593 9.83129 7.21594 9.83012 7.99273C9.82905 8.7076 9.78916 8.97535 9.62201 9.38895C9.33279 10.1048 8.58971 10.8743 7.833 11.2418C7.26881 11.5158 7.18626 11.5307 6.25039 11.5289C5.34437 11.527 5.21853 11.5055 4.72515 11.2689C1.80219 9.86686 2.07734 5.60442 5.15409 4.62322C5.39017 4.54794 5.85093 4.51088 6.38322 4.52433C7.10139 4.54246 7.32186 4.58536 7.79141 4.79826ZM31.3663 4.85081C31.6251 4.96111 31.8341 5.07627 31.8307 5.10679C31.8273 5.1373 30.6701 6.16972 29.2592 7.40107L26.694 9.6398L26.5606 9.39125C26.3824 9.05929 26.3195 7.77867 26.4526 7.19179C26.6855 6.16433 27.6904 5.10511 28.7648 4.75448C29.4775 4.52176 30.7009 4.56714 31.3663 4.85081ZM61.9485 4.99277C64.2012 5.65307 65.3166 8.19342 64.2796 10.3019C63.564 11.7566 61.7838 12.674 60.2301 12.3888C57.1931 11.8314 55.94 8.33 57.9771 6.09383C58.9511 5.02461 60.5473 4.58209 61.9485 4.99277ZM56.8012 11.581C56.8837 11.7127 56.788 11.7842 56.6165 11.7193C56.5373 11.6893 56.4976 11.6247 56.5283 11.5757C56.6009 11.4597 56.7268 11.4621 56.8012 11.581Z" fill="#001E41"/>
</svg>
