<svg width="69" height="19" viewBox="0 0 69 19" fill="none" xmlns="http://www.w3.org/2000/svg">
<path fill-rule="evenodd" clip-rule="evenodd" d="M0.779879 7.36682L0.751221 14.5974L8.21427 14.5974H15.6773V7.36682L15.6773 0.13623L8.24293 0.13623L0.808428 0.13623L0.779879 7.36682ZM12.3122 7.36682V11.3252H8.24141L4.17066 11.3252L4.17066 7.36682L4.17066 3.40847L8.24141 3.40847L12.3122 3.40847L12.3122 7.36682ZM44.4711 4.41305C42.4717 4.83538 40.7508 6.37861 40.2533 8.19544C40.0788 8.83268 40.0607 10.1263 40.217 10.7856C40.5963 12.3857 42.0327 13.8954 43.7657 14.5155C44.6764 14.8415 46.8258 14.8381 47.7461 14.5094C48.6249 14.1955 49.2975 13.7563 50.0062 13.0339C51.0138 12.0067 51.388 11.0555 51.3901 9.51542C51.3919 8.33118 51.1102 7.43374 50.4725 6.59151C49.0952 4.77215 46.7688 3.9277 44.4711 4.41305ZM25.0352 4.51396C24.2583 4.68433 23.735 4.96563 23.3349 5.42797L23.059 5.74685V5.15827V4.56959H21.5392H20.0195V11.4307L20.0195 18.2919H21.5392H23.059L23.0608 15.7849L23.0627 13.278L23.2871 13.6188C23.6178 14.1208 24.6684 14.5904 25.6374 14.6695C27.784 14.8444 29.6498 13.8175 30.5895 11.9435C31.7938 9.54254 31.0483 6.66255 28.8401 5.18519C27.8358 4.51332 26.2855 4.23983 25.0352 4.51396ZM37.5154 4.51301C36.904 4.70132 36.2542 5.14423 35.981 5.55875L35.7634 5.88904L35.7616 5.22931L35.7597 4.56959H34.24L32.7202 4.56959V9.53072V14.4919H34.24H35.7597V11.8722C35.7597 8.84756 35.8368 8.41731 36.4889 7.8015C37.022 7.298 37.72 7.08214 38.7139 7.11349L39.5048 7.1384V5.77482V4.41125L38.7449 4.38982C38.327 4.378 37.7737 4.43342 37.5154 4.51301ZM57.6747 4.50425C57.0551 4.71947 56.5292 5.07562 56.2864 5.44401L56.0629 5.78348L56.0611 5.17653L56.0592 4.56959L54.5395 4.56959H53.0197V9.53072V14.4919H54.5395H56.0592L56.0616 11.4571C56.0642 8.12493 56.1016 7.90347 56.7593 7.31404C57.0085 7.09069 57.1589 7.05015 57.7392 7.05015C58.2711 7.05015 58.4791 7.09744 58.6681 7.26126C59.1745 7.70038 59.2073 7.94706 59.2073 11.3218V14.4919H60.7209H62.2347L62.2678 11.4043C62.2989 8.514 62.3155 8.28991 62.5276 7.8946C62.8362 7.31953 63.3489 6.99738 63.9558 6.99738C64.5847 6.99738 65.0223 7.25884 65.2886 7.79369C65.4879 8.19385 65.5034 8.45204 65.5034 11.3585V14.4919L67.0317 14.4919H68.56L68.5234 10.8238L68.4868 7.15571L68.2059 6.50601C67.5316 4.94579 66.3341 4.26601 64.4778 4.3894C63.2598 4.47036 62.6361 4.70881 61.9847 5.34215C61.6157 5.70104 61.4281 5.82127 61.3947 5.72036C61.2706 5.34426 60.4348 4.69298 59.8652 4.52852C59.1637 4.32596 58.2179 4.31541 57.6747 4.50425ZM46.8579 7.17144C47.8346 7.65341 48.3812 8.49595 48.3885 9.5304C48.4043 11.7809 45.7771 12.9805 44.0571 11.5083C43.4035 10.9489 43.1468 10.4041 43.1437 9.56999C43.1403 8.62104 43.4957 7.92595 44.2521 7.40218C44.9579 6.91346 46.1257 6.81001 46.8579 7.17144ZM26.5606 7.25736C27.7442 7.73827 28.3539 8.94193 28.046 10.19C27.94 10.62 27.7902 10.855 27.349 11.284C26.8768 11.7433 26.6888 11.8503 26.1714 11.9547C24.1416 12.3645 22.44 10.7179 22.9905 8.8767C23.1905 8.20726 23.7388 7.59831 24.4071 7.30317C24.9493 7.06377 26.0276 7.04076 26.5606 7.25736Z" fill="#001E41"/>
</svg>
